<svg width="34" height="35" xmlns="http://www.w3.org/2000/svg"><path d="M30.322 25.883c.705.718 1.075 1.572 1.075 2.464 0 .883-.363 1.744-1.054 2.484-.3.324-.607.632-.907.926-.44.439-.859.848-1.222 1.3-.007.014-.02.021-.028.036-1.06 1.185-2.415 1.782-4.028 1.782-.14 0-.293-.008-.44-.015-2.394-.158-4.537-1.084-6.142-1.867-4.203-2.09-7.882-5.056-10.94-8.812-2.52-3.117-4.209-6.025-5.34-9.164C.836 13.74.236 11.785.403 9.69c.112-1.3.621-2.42 1.515-3.34L4.29 3.887l.014-.015c.698-.69 1.522-1.056 2.374-1.056.851 0 1.661.366 2.338 1.056.454.43.894.89 1.312 1.336.21.23.433.46.65.682l1.905 1.96c1.466 1.509 1.466 3.462 0 4.97-.195.2-.39.41-.586.61-.517.539-1.047 1.1-1.62 1.638.426.97 1.013 1.924 1.885 3.059 1.801 2.277 3.68 4.036 5.745 5.386.203.129.44.251.692.381.174.094.356.187.537.287l2.206-2.262c.705-.725 1.529-1.107 2.387-1.107.866 0 1.683.389 2.36 1.114zm-1.34 1.357l-3.846-3.957-.014-.014c-.217-.244-.573-.524-1.005-.524-.44 0-.817.294-1.055.538l-2.387 2.457c-.119.121-.482.495-1.061.495-.23 0-.454-.058-.691-.18-.028-.014-.056-.036-.084-.05a8.79 8.79 0 00-.691-.38 9.203 9.203 0 01-.859-.482c-2.24-1.458-4.272-3.36-6.199-5.802l-.007-.008c-1.06-1.385-1.759-2.55-2.254-3.784l-.021-.065c-.126-.41-.238-1.012.363-1.63.007-.014.02-.021.035-.036a36.946 36.946 0 001.752-1.752c.202-.201.398-.41.6-.618.74-.76.74-1.465 0-2.226l-1.906-1.96c-.223-.238-.446-.467-.663-.697-.426-.453-.83-.876-1.256-1.285l-.021-.022c-.224-.23-.58-.503-1.02-.503-.355 0-.718.18-1.06.51l-2.38 2.449a3.337 3.337 0 00-.964 2.133c-.105 1.314.132 2.707.782 4.495 1.054 2.93 2.645 5.66 5.026 8.611 2.883 3.54 6.352 6.335 10.303 8.302 1.445.71 3.372 1.544 5.445 1.68.105.007.217.007.321.007 1.09 0 1.92-.366 2.625-1.142.433-.524.894-.99 1.347-1.436.3-.301.58-.574.852-.876-.007.008-.007 0 0 0 .712-.761.712-1.515-.007-2.248zM17.464 7.821a.95.95 0 011.089-.79c2.213.388 4.23 1.466 5.829 3.11a11.187 11.187 0 013.022 5.997c.084.531-.258 1.034-.774 1.12-.056.008-.105.015-.161.015a.945.945 0 01-.928-.805 9.246 9.246 0 00-2.5-4.955c-1.326-1.364-2.987-2.255-4.816-2.571-.517-.086-.852-.596-.761-1.12zm15.155 9.143c-.056.007-.105.014-.16.014a.944.944 0 01-.929-.804 16.432 16.432 0 00-4.447-8.827c-2.36-2.42-5.326-4.007-8.579-4.574a.972.972 0 01-.775-1.12c.09-.525.573-.884 1.082-.79 3.644.639 6.96 2.405 9.599 5.12a18.405 18.405 0 014.977 9.875c.09.524-.258 1.026-.768 1.106z" fill="#d01818"/></svg>