<svg width="93" height="55" xmlns="http://www.w3.org/2000/svg"><path d="M93 28.442v11c-.155 4.243-3.56 7.7-7.892 7.7h-3.227c-.743 4.444-4.573 7.856-9.152 7.856-4.58 0-8.41-3.412-9.153-7.856H32.363c-.742 4.444-4.572 7.856-9.152 7.856-4.58 0-8.41-3.412-9.152-7.856H7.737C3.404 47.142 0 43.684 0 39.285v-7.072c0-3.928 2.94-7.228 6.809-7.856l9.44-1.258a24.392 24.392 0 007.91-2.445A25.274 25.274 0 0115.473 1.57c0-.943.62-1.572 1.548-1.572s1.547.63 1.547 1.572a22.113 22.113 0 008.435 17.389 25.82 25.82 0 004.718-4.19l2.166-2.2c2.631-2.985 6.345-4.714 10.213-4.714h20.272a13.59 13.59 0 0111.76 6.757l.464.786c1.857 2.985 5.107 4.872 9.13 5.186 4.023.314 7.273 3.77 7.273 7.857zM29.4 45.57c0-3.457-2.784-6.285-6.189-6.285-3.404 0-6.19 2.828-6.19 6.285 0 3.457 2.786 6.286 6.19 6.286 3.405 0 6.19-2.829 6.19-6.286zm49.518 0c0-3.457-2.785-6.285-6.19-6.285-3.404 0-6.189 2.828-6.189 6.285 0 3.457 2.785 6.286 6.19 6.286 3.404 0 6.19-2.829 6.19-6.286zM89.75 28.285c0-2.515-1.857-4.557-4.333-4.714-4.951-.314-9.284-2.83-11.605-6.757l-.464-.786c-1.857-2.986-5.262-5.03-8.975-5.03H44.1c-3.095 0-5.88 1.258-7.891 3.615l-2.167 2.515a27.634 27.634 0 01-4.041 3.817 21.217 21.217 0 0010.23 2.626h5.572l-3.56-3.615a1.535 1.535 0 010-2.2c.62-.628 1.548-.628 2.167 0l5.925 6.017c.455.257.729.743.729 1.369s-.274 1.112-.73 1.369l-5.924 6.016c-.31.315-.62.473-1.083.473-.465 0-.774-.158-1.083-.473a1.535 1.535 0 010-2.2l3.559-3.614h-5.571a24.29 24.29 0 01-13.102-3.837A27.078 27.078 0 0116.557 26.4l-9.439 1.257c-2.32.157-4.023 2.2-4.023 4.557v7.072c0 2.671 2.011 4.713 4.642 4.713h6.322a9.464 9.464 0 015.339-7.017c.061-.028.122-.058.184-.085l.118-.048a7.437 7.437 0 01.386-.152 9.08 9.08 0 01.344-.118l.075-.024a7.604 7.604 0 01.435-.124 8.3 8.3 0 01.356-.084l.09-.02a9.03 9.03 0 01.348-.063l.104-.017a9.94 9.94 0 01.34-.044l.116-.014c.114-.01.23-.02.345-.027.038-.002.076-.006.114-.007a8.497 8.497 0 01.917 0c.038.001.076.005.114.007.115.007.23.016.344.027l.116.014c.114.013.228.026.34.044l.104.017c.117.019.233.04.349.064l.09.019a8.257 8.257 0 01.79.208l.076.024c.115.037.23.077.343.118l.083.03c.102.039.203.08.304.123.039.016.078.03.117.048.062.027.123.057.185.085A9.465 9.465 0 0132.363 44h31.213a9.465 9.465 0 015.339-7.017c.061-.028.122-.058.184-.085l.117-.048c.1-.042.202-.085.304-.122l.083-.03c.114-.042.228-.082.343-.12l.076-.023a7.562 7.562 0 01.435-.124 8.29 8.29 0 01.355-.084l.09-.02c.116-.023.232-.043.349-.063l.104-.017c.112-.017.226-.031.34-.044l.116-.014c.114-.01.23-.02.344-.027l.114-.007a8.504 8.504 0 01.918 0l.113.007a10.284 10.284 0 01.46.04c.115.014.228.028.341.045l.104.017c.117.02.233.04.348.064l.09.019a10.753 10.753 0 01.436.105c.12.031.238.066.355.103l.076.024c.115.037.23.077.343.118l.083.03c.102.038.203.08.303.122.04.016.08.032.118.049.062.026.123.056.184.084A9.464 9.464 0 0181.881 44h3.227c2.63 0 4.642-2.043 4.642-4.714z" fill="#fff"/></svg>