<svg width="64" height="64" xmlns="http://www.w3.org/2000/svg"><path d="M64 1.25v61.499c0 .69-.56 1.25-1.25 1.25H25.016a6.295 6.295 0 01-4.14-1.551l-1.487-1.296a3.757 3.757 0 01-3.64 2.847h-12A3.754 3.754 0 010 60.249V39.873a3.754 3.754 0 013.75-3.75h12c1.285 0 2.42.65 3.096 1.637l5.313-5.313L18.017 9.53A1.25 1.25 0 0118.9 8l11.85-3.174V1.25C30.75.56 31.31 0 32 0l30.75-.002A1.25 1.25 0 0164 1.25zM3.75 38.624c-.69 0-1.25.56-1.25 1.25v20.374c0 .69.56 1.25 1.25 1.25h12c.689 0 1.25-.56 1.25-1.25V39.875c0-.69-.56-1.25-1.25-1.25zm22.876-6.623c.097.129.169.278.21.439l1.293 5.057h2.508l-4.872-18.042a1.25 1.25 0 01.883-1.532 3.37 3.37 0 002.38-4.124 1.248 1.248 0 01.884-1.531l.838-.224v-4.63l-9.995 2.677zm1.844-12.119l2.28 8.442V17.777a5.851 5.851 0 01-2.28 2.106zM50.458 59.75c0-.966-.785-1.75-1.75-1.75h-9.567a1.25 1.25 0 010-2.5h13.831c.965 0 1.75-.786 1.75-1.751 0-.964-.785-1.75-1.75-1.75h-13.83a1.25 1.25 0 110-2.5h16.505c.965 0 1.75-.785 1.75-1.75S56.612 46 55.647 46H39.14a1.25 1.25 0 010-2.5h12.593c.965 0 1.75-.785 1.75-1.751 0-.964-.785-1.75-1.75-1.75l-24.576-.001a1.25 1.25 0 01-1.211-.941l-.99-3.871-5.457 5.457V57.93l3.019 2.633a3.803 3.803 0 002.496.935h23.693c.965 0 1.75-.784 1.75-1.75zM61.5 2.5H33.25v35h2.442V12.616c0-.69.56-1.25 1.25-1.25A3.37 3.37 0 0040.307 8c0-.69.56-1.25 1.25-1.25h11.635c.69 0 1.25.56 1.25 1.25a3.37 3.37 0 003.366 3.366c.69 0 1.25.56 1.25 1.25v5.002a1.25 1.25 0 11-2.5 0v-3.886a5.883 5.883 0 01-4.482-4.482h-9.403a5.883 5.883 0 01-4.482 4.482V37.5h6.834a5.99 5.99 0 01-3.633-5.502 5.989 5.989 0 015.983-5.98 5.989 5.989 0 015.982 5.98 5.99 5.99 0 01-3.632 5.502h2.009a4.255 4.255 0 014.25 4.249 4.22 4.22 0 01-.379 1.75h.041c.313 0 .618.036.912.1V29.375a1.25 1.25 0 012.5 0v15.842c.526.708.839 1.584.839 2.532a4.255 4.255 0 01-3.126 4.097c.288.573.451 1.22.451 1.903a4.255 4.255 0 01-4.25 4.25h-.392a4.22 4.22 0 010 3.5h8.92zM50.857 31.997a3.486 3.486 0 00-3.482-3.48 3.486 3.486 0 00-3.482 3.481 3.486 3.486 0 003.482 3.482 3.486 3.486 0 003.482-3.483z" fill="#ccdaea"/></svg>