<svg width="61" height="61" xmlns="http://www.w3.org/2000/svg"><path d="M58.022 54.354a3.193 3.193 0 01.004 4.461 3.08 3.08 0 01-4.393-.004L32.032 36.875l-8.28 8.409c1.312 4.113.257 8.652-2.78 11.737a11.296 11.296 0 01-8.051 3.385c-1.396 0-2.804-.26-4.152-.798a1.045 1.045 0 01-.636-.762 1.063 1.063 0 01.281-.959l6.58-6.682-4.388-4.456-6.58 6.683a1.025 1.025 0 01-1.695-.361c-1.65-4.279-.65-9.143 2.55-12.393 3.036-3.083 7.506-4.156 11.556-2.823l6.817-6.923-3.579-3.635c-2.181 1.549-4.462 2.69-6.682 3.322-1.295.369-2.521.55-3.655.55-2.126 0-3.93-.642-5.26-1.895-.06.004-.118.01-.177.01-.795 0-1.59-.31-2.195-.923a3.19 3.19 0 010-4.457L23.65 1.62a3.072 3.072 0 014.389 0c.65.66.948 1.546.898 2.413 1.892 2.074 2.366 5.272 1.325 9.05-.622 2.254-1.747 4.57-3.271 6.785l3.579 3.635 7.851-7.974c-1.312-4.113-.257-8.651 2.78-11.737C44.4.542 49.19-.474 53.403 1.204c.325.128.564.416.635.762a1.06 1.06 0 01-.28.958l-6.58 6.682 4.388 4.457 6.58-6.682a1.026 1.026 0 011.694.36c1.651 4.279.65 9.143-2.548 12.392-3.037 3.085-7.507 4.157-11.557 2.824l-9.315 9.46zm-53.39-27.48L26.575 4.59a1.064 1.064 0 000-1.486 1.025 1.025 0 00-.732-.311c-.263 0-.526.104-.731.311L3.169 25.39a1.064 1.064 0 000 1.486c.41.416 1.053.416 1.463 0zm17.554-4.457c3.002-3.049 5.162-6.566 6.082-9.902.72-2.607.598-4.813-.322-6.347L6.186 28.267c1.511.935 3.682 1.058 6.25.328 3.285-.935 6.748-3.128 9.75-6.178zm2.194 6.686l4.389-4.457-3.039-3.086a30.488 30.488 0 01-4.389 4.457zm20.354-8.102a1.025 1.025 0 011.11-.235 9.21 9.21 0 009.985-2.118 9.556 9.556 0 002.55-8.532l-6.082 6.177a1.027 1.027 0 01-1.463 0l-5.851-5.943a1.062 1.062 0 010-1.486l6.081-6.176a9.223 9.223 0 00-8.4 2.59c-2.619 2.658-3.437 6.639-2.086 10.14.15.389.059.83-.232 1.126L17.437 39.81c-.29.295-.726.388-1.109.236a9.21 9.21 0 00-9.985 2.117 9.556 9.556 0 00-2.55 8.532l6.082-6.176a1.027 1.027 0 011.463 0l5.85 5.942a1.064 1.064 0 010 1.487l-6.08 6.175a9.221 9.221 0 008.4-2.59c2.619-2.658 3.437-6.639 2.086-10.14a1.06 1.06 0 01.232-1.126zM56.56 55.839L35.02 33.967l-1.463 1.485 21.538 21.873a1.027 1.027 0 001.467.005 1.054 1.054 0 00-.004-1.49z" fill="#ccdaea"/></svg>