<svg width="63" height="60" xmlns="http://www.w3.org/2000/svg"><path d="M61.257 58.447a5.21 5.21 0 01-7.425-.005L38.586 43.006A4.636 4.636 0 0131.983 43l-3.29-3.332a1.19 1.19 0 010-1.67l5.196-5.26-1.917-3.881a1.193 1.193 0 01.013-1.08l8.853-16.93c.659-1.26.369-3.245-.62-4.247l-3.705-3.75-2.267 2.294.617.626a5.904 5.904 0 011.708 4.175 5.887 5.887 0 01-1.7 4.168L12.39 36.873a5.78 5.78 0 01-8.24-.008l-2.47-2.5A5.903 5.903 0 01-.028 30.19a5.882 5.882 0 011.7-4.167L24.154 3.261a5.74 5.74 0 014.112-1.724h.008a5.765 5.765 0 014.12 1.732l.203.205L35.688.345a1.154 1.154 0 011.649 0l4.529 4.585c1.724 1.746 2.178 4.829 1.033 7.02l-8.573 16.394 1.301 2.634 4.608-4.665a1.155 1.155 0 011.648 0l3.29 3.331c1.536 1.556 1.779 3.932.727 5.744l15.352 15.543c2.048 2.072 2.05 5.446.005 7.516zM34.24 9.946c0-.949-.365-1.84-1.025-2.508l-2.47-2.5a3.464 3.464 0 00-2.474-1.04h-.004a3.44 3.44 0 00-2.464 1.032L3.32 27.692a3.527 3.527 0 00-1.017 2.497c0 .948.365 1.838 1.025 2.507l2.47 2.5a3.468 3.468 0 004.942.008l22.483-22.761a3.531 3.531 0 001.017-2.497zM59.603 52.6l-16.07-16.27a1.191 1.191 0 01-.002-1.67 2.393 2.393 0 00-.007-3.347l-2.465-2.496-4.652 4.709a1.16 1.16 0 01-.539.58c-.017.008-.034.01-.051.018l-4.651 4.709 2.465 2.497a2.322 2.322 0 003.309.004l.822-.832c.218-.22.515-.346.824-.346.31 0 .606.126.824.346l16.07 16.27a2.896 2.896 0 004.129.006 2.984 2.984 0 00-.006-4.178z" fill="#ccdaea"/></svg>