<svg width="77" height="68" xmlns="http://www.w3.org/2000/svg"><path d="M14.265 19.484l14.112 1.308c.385 0 .77.261.898.523.129.392.257.654.257.915v.262c-1.668 6.8-1.668 16.215 0 22.884.128.392 0 .785-.257 1.046-.256.262-.513.523-.898.523l-14.112 1.307c-.641 0-1.154-.26-1.283-.914-1.796-5.493-1.796-20.792 0-26.939.129-.653.77-1.046 1.283-.915zm.898 2.877c-1.283 5.884-1.283 17.915 0 23.407l11.546-1.046c-.641-3.269-1.026-7.062-1.026-10.722 0-3.662.385-7.324 1.026-10.593zm43.876-2.747h8.98c.642 0 1.155.393 1.283 1.047.898 4.446 1.283 8.892 1.283 13.339 0 4.446-.385 8.891-1.283 13.338-.128.653-.641 1.046-1.283 1.046h-8.98c-2.181 0-3.849-1.7-3.849-3.924V23.538c0-2.223 1.668-3.924 3.85-3.924zm7.954 2.616H59.04c-.77 0-1.283.523-1.283 1.308V44.46c0 .786.513 1.308 1.283 1.308h7.954a65.957 65.957 0 000-23.538zm-30.078-7.846h9.831L55.32.654c.256-.394.641-.655 1.026-.655h6.415c.513 0 .898.261 1.154.654.257.262.257.393.257.654s-.129.523-.257.654l-7.756 12.423h16.993c2.181 0 3.849 1.7 3.849 3.923V49.69c0 2.223-1.668 3.923-3.849 3.923H56.287l7.756 12.423c0 .131.128.393.128.654 0 .262 0 .392-.128.654-.257.393-.642.654-1.155.654h-6.415c-.385 0-.898-.261-1.026-.654l-8.572-13.73H35.76l7.756 12.422c0 .131.128.393.128.654 0 .262 0 .392-.128.654-.257.392-.642.654-1.155.654h-6.414c-.385 0-.899-.262-1.027-.654l-8.572-13.73h-12.34c-3.463 0-6.414-.393-10.134-1.308-.513-.132-.77-.523-.898-.916L1.18 43.152c-1.283-5.884-1.283-12.16 0-18.176l1.796-8.238c0-.523.385-.916.898-1.047 3.72-.915 6.67-1.307 10.135-1.307h13.494L36.075.654c.256-.393.641-.655 1.026-.655h6.415c.513 0 .898.262 1.154.654.257.262.257.392.257.654 0 .261-.128.523-.257.654zm-6.228 0h3.335l7.313-11.77h-3.336zm1.924 39.23h-3.336l7.313 11.77h3.336zm20.527 0h-3.336l7.313 11.77h3.335zM73.15 17H14.01c-2.951 0-5.645.261-8.724 1.047L3.618 25.5c-1.283 5.493-1.283 11.377 0 17l1.668 7.454C8.365 50.738 10.931 51 14.01 51h59.14c.77 0 1.283-.523 1.283-1.308V18.307c0-.785-.513-1.308-1.283-1.308zm-23.22-2.615h3.335l7.313-11.77h-3.336zm-15.267 5.23h15.395c.77 0 1.283.524 1.283 1.309v5.23c0 .784-.514 1.308-1.283 1.308H38.512c-.384 0-.77-.13-1.026-.524l-3.849-5.23c-.256-.392-.385-.915-.128-1.308.257-.392.642-.785 1.155-.785zm2.566 2.616l1.924 2.616h9.622V22.23zm12.829 26.154H34.664c-.513 0-.898-.262-1.155-.785-.257-.392-.128-.915.128-1.307l3.849-5.231c.257-.393.642-.523 1.026-.523H50.06c.77 0 1.283.523 1.283 1.307v5.23c0 .786-.514 1.309-1.283 1.309zm-1.283-2.616v-2.616h-9.622l-1.924 2.616z" fill="#ccdaea"/></svg>