<svg width="438" height="310" xmlns="http://www.w3.org/2000/svg"><g opacity=".1" clip-path="url(#clip-1222)"><path d="M15.214 6.078c0-6.985 3.274-20.149 25.2-29.831 13.501-5.964 31.219-9.248 49.89-9.248 18.674 0 36.393 3.284 49.895 9.248 21.923 9.684 25.197 22.847 25.197 29.83 0 6.985-3.274 20.15-25.197 29.834-13.5 5.963-31.22 9.247-49.894 9.247-18.672 0-36.39-3.284-49.892-9.247-21.925-9.684-25.199-22.848-25.199-29.833zm21.098 0c0 6.159 21.028 17.937 53.994 17.937S144.3 12.238 144.3 6.078c0-6.16-21.027-17.937-53.993-17.937-32.967 0-53.994 11.778-53.994 17.937zm38.506 236.578c0 5.84-4.723 10.571-10.55 10.571H40.247c-5.827 0-10.55-4.731-10.55-10.571 0-5.839 4.723-10.572 10.55-10.572H64.27c5.826 0 10.549 4.733 10.549 10.572zm302.751 24.473c0 5.838-4.708 10.572-10.535 10.572h-.03c-5.826 0-10.548-4.734-10.548-10.572 0-5.84 4.722-10.572 10.549-10.572 5.826 0 10.564 4.732 10.564 10.572zM166.672 169.25h11.868c5.827 0 10.55 4.734 10.55 10.572 0 5.84-4.723 10.572-10.55 10.572h-11.868c-5.826 0-10.549-4.732-10.549-10.572 0-5.838 4.724-10.572 10.55-10.572zM189.825 6.41c0-5.839 4.723-10.57 10.55-10.57h46.908a1042.05 1042.05 0 00-1.825-2.193c-1.78-2.14-3.417-4.104-4.922-5.933-3.707-4.505-3.07-11.168 1.424-14.883 4.494-3.716 11.142-3.076 14.85 1.426a1321.31 1321.31 0 004.847 5.844c2.13 2.56 4.47 5.368 7.04 8.491 2.73 3.315 5.47 6.743 8.512 10.56a10.538 10.538 0 012.303 6.928 10.574 10.574 0 01-.636 3.965l-.003.01a.142.142 0 01-.009.02l-.01.028v.002a10.546 10.546 0 01-1.695 2.964c-2.896 3.634-5.723 7.17-8.463 10.498-2.585 3.144-4.937 5.966-7.078 8.54-1.74 2.088-3.338 4.01-4.81 5.797a10.52 10.52 0 01-8.143 3.843c-2.364 0-4.743-.792-6.708-2.418-4.494-3.716-5.13-10.38-1.423-14.883a1441.38 1441.38 0 014.884-5.886l1.314-1.579h-46.358c-5.826 0-10.549-4.732-10.549-10.57zM157.03 57.89c4.184 4.065 4.287 10.758.231 14.95-12.25 12.664-37.906 20.532-66.954 20.532-29.047 0-54.702-7.867-66.95-20.532-4.055-4.192-3.952-10.885.233-14.95 4.184-4.063 10.863-3.958 14.916.234 6.57 6.793 25.583 14.104 51.801 14.104 26.22 0 45.235-7.313 51.807-14.105a10.534 10.534 0 0114.916-.233zm137.108 209.236c0 5.84-4.722 10.572-10.549 10.572h-60.91c-4.85 22.438-24.817 39.3-48.639 39.3-24.43 0-44.805-17.734-48.982-41.03-8.453-2.686-15.426-8.338-19.173-15.88-1.875-3.78-2.823-7.794-2.823-11.931v-70.494c0-5.84 4.723-10.572 10.55-10.572 5.826 0 10.548 4.733 10.548 10.572v70.494c0 .846.207 1.694.616 2.518.357.72.89 1.45 1.587 2.142 6.152-20.547 25.197-35.56 47.677-35.56 23.821 0 43.786 16.86 48.639 39.297h60.91c5.827 0 10.55 4.733 10.55 10.572zm-91.432.003c0-15.84-12.861-28.727-28.667-28.727-15.729 0-28.54 12.758-28.666 28.49a8.67 8.67 0 010 .395c.087 15.768 12.914 28.567 28.667 28.567 15.806 0 28.666-12.886 28.666-28.725zM74.818 204.687c0 5.839-4.723 10.573-10.55 10.573H10.55C4.723 215.26 0 210.526 0 204.687s4.723-10.572 10.55-10.572h53.72c5.826 0 10.549 4.733 10.549 10.572zm363.132 21.59l-.022 4.815c-.024 4.755-.05 10.2-.05 17.067 0 12.642-9.074 23.588-21.864 27.75-4.15 23.327-24.541 41.09-48.995 41.09-27.44 0-49.765-22.371-49.765-49.87 0-27.497 22.324-49.87 49.765-49.87 22.446 0 41.468 14.968 47.651 35.465 1.322-1.344 2.11-2.928 2.11-4.566 0-6.91.027-12.389.05-17.172l.023-4.807c.04-8.646.094-20.486-.032-26.012-.088-3.86-.192-7.03-.462-9.77H254.072c-3.786 0-12.652 0-39.784-26.87-8.266-8.187-24.7-25.608-27.722-32.947-2.224-5.397.34-11.578 5.724-13.805 5.304-2.197 11.367.263 13.673 5.493 1.435 2.577 10.014 13.123 22.446 25.517 15.661 15.611 23.982 20.666 26.249 21.469h149.844c-3.392-3.26-7.743-7.123-13.333-12.086a1921.55 1921.55 0 01-9.597-8.562c-2.553-2.295-5.096-4.73-7.557-7.085-3.588-3.435-7.298-6.988-11.16-10.229-3.407-2.86-6.633-5.583-9.7-8.172-39.15-33.035-49.672-41.915-82.689-41.915H197.64c-5.827 0-10.55-4.732-10.55-10.57 0-5.84 4.723-10.573 10.55-10.573h72.826c40.716 0 56.982 13.726 96.278 46.885 3.055 2.578 6.267 5.288 9.66 8.136 4.39 3.685 8.352 7.48 12.185 11.149 2.451 2.347 4.766 4.562 7.073 6.636 3.468 3.12 6.625 5.922 9.499 8.474 25.283 22.449 32.079 28.483 32.751 58.347.133 5.811.08 17.33.038 26.588zm-42.263 41.006a14.38 14.38 0 010-.398c-.132-15.728-12.942-28.483-28.668-28.483-15.807 0-28.667 12.887-28.667 28.727 0 15.839 12.86 28.725 28.667 28.725 15.757 0 28.584-12.802 28.668-28.571zm-211.086-.154c0 5.838-4.722 10.572-10.549 10.572-5.827 0-10.562-4.734-10.562-10.572 0-5.84 4.71-10.572 10.535-10.572h.027c5.827 0 10.55 4.732 10.55 10.572zm-27.34-145.147c-12.25 12.662-37.906 20.53-66.956 20.53-29.05 0-54.704-7.866-66.95-20.531-4.055-4.192-3.95-10.887.233-14.95 4.184-4.064 10.864-3.957 14.917.234 6.569 6.792 25.58 14.102 51.8 14.102 26.222 0 45.236-7.31 51.807-14.103 4.054-4.191 10.734-4.297 14.916-.232 4.185 4.065 4.288 10.757.232 14.95z" fill="#fff"/></g></svg>