<svg width="438" height="310" xmlns="http://www.w3.org/2000/svg"><g opacity=".1" clip-path="url(#clip-1223)"><path d="M397.586 35.91c-13.501 5.964-31.22 9.248-49.891 9.248-18.674 0-36.393-3.284-49.894-9.247-21.923-9.684-25.197-22.85-25.197-29.833 0-6.984 3.274-20.147 25.197-29.831 13.502-5.964 31.22-9.248 49.894-9.248 18.672 0 36.39 3.284 49.891 9.248 21.926 9.682 25.2 22.846 25.2 29.83 0 6.986-3.274 20.15-25.2 29.834zm-49.892-47.769C314.728-11.859 293.7-.08 293.7 6.078c0 6.16 21.027 17.937 53.993 17.937s53.994-11.778 53.994-17.937c0-6.159-21.027-17.937-53.994-17.937zm26.037 243.943h24.023c5.827 0 10.55 4.733 10.55 10.572 0 5.84-4.723 10.571-10.55 10.571h-24.023c-5.826 0-10.549-4.731-10.549-10.571 0-5.839 4.723-10.572 10.55-10.572zM70.995 256.557c5.827 0 10.55 4.732 10.55 10.572 0 5.839-4.723 10.572-10.55 10.572h-.03c-5.826 0-10.534-4.734-10.534-10.572 0-5.84 4.738-10.572 10.564-10.572zm210.882-76.734c0 5.84-4.723 10.572-10.55 10.572H259.46c-5.827 0-10.55-4.732-10.55-10.572 0-5.838 4.723-10.572 10.55-10.572h11.868c5.825 0 10.549 4.734 10.549 10.572zM237.625 16.98h-46.357l1.314 1.579a1441.24 1441.24 0 014.884 5.886c3.708 4.503 3.071 11.167-1.423 14.883a10.486 10.486 0 01-6.708 2.418 10.52 10.52 0 01-8.142-3.843c-1.473-1.788-3.072-3.709-4.81-5.798-2.142-2.573-4.494-5.395-7.08-8.539-2.739-3.328-5.566-6.864-8.462-10.498a10.546 10.546 0 01-1.695-2.964v-.002l-.01-.028-.009-.02-.003-.01a10.574 10.574 0 01-.636-3.965A10.538 10.538 0 01160.79-.85c3.042-3.816 5.783-7.244 8.512-10.559 2.57-3.123 4.91-5.931 7.041-8.49 1.754-2.107 3.364-4.043 4.847-5.845 3.708-4.502 10.356-5.142 14.85-1.426 4.494 3.715 5.131 10.378 1.424 14.883-1.505 1.829-3.141 3.793-4.922 5.933-.592.709-1.2 1.44-1.825 2.192h46.908c5.827 0 10.55 4.732 10.55 10.571 0 5.84-4.723 10.572-10.55 10.571zm58.262 41.143c6.572 6.792 25.588 14.105 51.807 14.105 26.218 0 45.23-7.311 51.8-14.104a10.534 10.534 0 0114.917-.234c4.184 4.065 4.288 10.758.233 14.95-12.248 12.665-37.903 20.532-66.95 20.532-29.048 0-54.703-7.868-66.954-20.532-4.056-4.192-3.953-10.885.23-14.95a10.534 10.534 0 0114.917.233zM154.412 256.554h60.91c4.853-22.437 24.818-39.296 48.639-39.296 22.48 0 41.525 15.012 47.677 35.559.696-.692 1.23-1.423 1.587-2.142.41-.824.615-1.672.615-2.518v-70.494c0-5.84 4.723-10.572 10.55-10.572 5.826 0 10.549 4.733 10.549 10.572v70.494c0 4.137-.949 8.15-2.823 11.931-3.747 7.542-10.72 13.194-19.173 15.88-4.177 23.296-24.552 41.03-48.982 41.03-23.823 0-43.79-16.862-48.64-39.3h-60.91c-5.826 0-10.548-4.732-10.548-10.572 0-5.84 4.722-10.572 10.549-10.572zm109.549 39.3c15.753 0 28.58-12.8 28.666-28.567a11.383 11.383 0 010-.395c-.125-15.732-12.936-28.49-28.665-28.49-15.806 0-28.667 12.887-28.667 28.727 0 15.839 12.86 28.725 28.666 28.725zm109.77-101.739h53.72c5.827 0 10.549 4.733 10.549 10.572 0 5.839-4.722 10.573-10.55 10.573h-53.719c-5.826 0-10.549-4.734-10.549-10.573s4.723-10.572 10.55-10.572zM.088 199.69c.672-29.864 7.468-35.898 32.751-58.347 2.874-2.552 6.03-5.355 9.499-8.474 2.307-2.074 4.622-4.29 7.073-6.636 3.832-3.669 7.794-7.464 12.185-11.149 3.393-2.848 6.605-5.558 9.66-8.136 39.296-33.16 55.562-46.885 96.278-46.885h72.826c5.827 0 10.55 4.732 10.55 10.572 0 5.839-4.723 10.571-10.55 10.571h-72.826c-33.017 0-43.539 8.88-82.689 41.915a4852.148 4852.148 0 01-9.7 8.172c-3.863 3.241-7.572 6.794-11.16 10.23-2.46 2.354-5.004 4.789-7.557 7.084a1921.103 1921.103 0 01-9.597 8.562c-5.59 4.963-9.941 8.827-13.333 12.086h149.844c2.267-.803 10.588-5.858 26.249-21.469 12.432-12.394 21.011-22.94 22.446-25.517 2.305-5.23 8.369-7.69 13.673-5.493 5.384 2.227 7.948 8.408 5.724 13.805-3.023 7.339-19.456 24.76-27.722 32.947-27.132 26.87-35.998 26.87-39.784 26.87H21.641c-.27 2.74-.374 5.91-.462 9.77-.126 5.526-.072 17.366-.032 26.012l.022 4.807c.024 4.783.05 10.262.05 17.172 0 1.637.788 3.222 2.11 4.566 6.184-20.497 25.206-35.465 47.652-35.465 27.44 0 49.765 22.373 49.765 49.87 0 27.499-22.324 49.87-49.765 49.87-24.454 0-44.844-17.763-48.995-41.09C9.196 271.748.123 260.802.123 248.16c0-6.867-.027-12.312-.05-17.067l-.023-4.815c-.042-9.258-.095-20.777.038-26.588zm70.893 96.165c15.806 0 28.667-12.886 28.667-28.725 0-15.84-12.86-28.727-28.667-28.727-15.726 0-28.536 12.755-28.668 28.483.003.133.002.265 0 .398.083 15.769 12.911 28.571 28.668 28.571zm192.967-39.297h.027c5.825 0 10.535 4.732 10.535 10.572 0 5.839-4.736 10.572-10.562 10.572-5.827 0-10.55-4.734-10.55-10.572 0-5.84 4.723-10.572 10.55-10.572zm17.024-149.525c4.182-4.065 10.862-3.959 14.916.232 6.571 6.793 25.585 14.104 51.807 14.104 26.22 0 45.231-7.311 51.8-14.103 4.053-4.19 10.733-4.298 14.917-.234 4.183 4.063 4.288 10.758.233 14.95-12.246 12.665-37.9 20.531-66.95 20.531-29.05 0-54.705-7.867-66.955-20.53-4.056-4.193-3.953-10.885.232-14.95z" fill="#fff"/></g></svg>