<svg width="54" height="54" xmlns="http://www.w3.org/2000/svg"><path d="M54 26.997c0 14.889-12.112 27.001-27 27.001s-27-12.112-27-27c0-14.889 12.112-27 27-27s27 12.111 27 27zm-1.862 0C52.138 13.137 40.86 1.86 27 1.86c-13.861 0-25.138 11.276-25.138 25.137C1.862 40.86 13.139 52.135 27 52.135c13.861 0 25.138-11.275 25.138-25.138zm-3.724 0c0 6.913-3.293 13.068-8.39 16.986a.926.926 0 01-.902.704l-.063-.003A21.294 21.294 0 0127 48.413a21.3 21.3 0 01-12.056-3.727A.93.93 0 0114 44c-5.111-3.916-8.414-10.08-8.414-17.003C5.586 15.19 15.192 5.584 27 5.584c11.808 0 21.414 9.606 21.414 21.413zM11.248 15.433c3.112-.555 9.233-1.47 15.752-1.47 6.52 0 12.64.915 15.752 1.47C39.19 10.593 33.456 7.446 27 7.446c-6.457 0-12.19 3.148-15.752 7.987zm-1.41 20.922c3.176-2.736 4.602-5.148 4.117-6.982-.651-2.465-4.632-3.813-6.419-4.2a19.425 19.425 0 002.302 11.183zm27.904 6.968c-1.603-2.427-6.283-8.876-10.733-8.876-4.456 0-9.141 6.462-10.74 8.884A19.441 19.441 0 0027 46.55a19.44 19.44 0 0010.743-3.226zm5.466-5.401c-3.937-3.341-5.579-6.378-4.879-9.025.484-1.832 2.03-3.34 4.596-4.476a18.07 18.07 0 013.279-1.076 19.404 19.404 0 00-2.07-5.755c-1.673-.342-9.096-1.764-17.134-1.764-8.046 0-15.462 1.42-17.134 1.764A19.41 19.41 0 007.8 23.328c.482.102 1.871.433 3.36 1.093 2.566 1.137 4.112 2.644 4.596 4.476.702 2.655-.95 5.7-4.912 9.053l-.02.014a19.68 19.68 0 003.938 4.265c1.79-2.71 6.894-9.645 12.248-9.645 5.348 0 10.446 6.919 12.241 9.636a19.722 19.722 0 003.958-4.298zm.982-1.616a19.426 19.426 0 002.275-11.114c-1.827.414-5.7 1.765-6.336 4.182-.48 1.825.926 4.216 4.061 6.932zm-11.604-11.17A5.593 5.593 0 0127 30.722a5.593 5.593 0 01-5.586-5.586A5.593 5.593 0 0127 19.549a5.593 5.593 0 015.586 5.587zm-1.862 0A3.728 3.728 0 0027 21.411a3.728 3.728 0 00-3.724 3.725A3.728 3.728 0 0027 28.86a3.728 3.728 0 003.724-3.724z" fill="#253241"/></svg>