<svg width="50" height="50" xmlns="http://www.w3.org/2000/svg"><path d="M37 11.989v26.017a3 3 0 01-3 2.991 3 3 0 01-3-2.99v-10.01h-3v10.008a3 3 0 01-3 2.991 3 3 0 01-3-2.99V27.997h-3v10.008a3 3 0 01-3 2.991 3 3 0 01-3-2.99V11.988a3 3 0 016 0v9.008h3v-9.008a3 3 0 016 0v9.008h3v-9.008a3 3 0 016 0zm-2 0a.996.996 0 00-1-.99c-.561 0-1 .435-1 .99v10.01a1 1 0 01-1 1h-5a1 1 0 01-1-1v-10.01a.996.996 0 00-1-.99c-.561 0-1 .435-1 .99v10.01a1 1 0 01-1 1h-5a1 1 0 01-1-1v-10.01a.996.996 0 00-1-.99c-.56 0-1 .435-1 .99v26.017c0 .547.449.992 1 .992.56 0 1-.436 1-.992V26.997a1 1 0 011-1h5a1 1 0 011 1v11.01c0 .546.449.99 1 .99.56 0 1-.435 1-.99v-11.01a1 1 0 011-1h5a1 1 0 011 1v11.01c0 .546.448.99 1 .99.56 0 1-.435 1-.99zm15-6.981v39.98a5.015 5.015 0 01-5.01 5.01H5.01A5.015 5.015 0 010 44.988V5.007a5.015 5.015 0 015.01-5.01h39.98A5.015 5.015 0 0150 5.008zm-2 39.98V5.007c0-1.66-1.35-3.01-3.01-3.01H5.01C3.35 1.997 2 3.347 2 5.007v39.98c0 1.66 1.35 3.01 3.01 3.01h39.98c1.66 0 3.01-1.35 3.01-3.01z" fill="#253241"/></svg>