<svg width="50" height="51" xmlns="http://www.w3.org/2000/svg"><path d="M47.986 12.278l-4.41 5.18a.849.849 0 01-.2.172l-8.573 5.245-1.086 3.302a.839.839 0 01-.794.581.83.83 0 01-.592-.25l-8.875-8.994a.856.856 0 01-.223-.795.842.842 0 01.55-.609l3.257-1.1 5.072-8.561a.889.889 0 01.17-.206l5.21-4.577c2.07-1.819 5.328-1.705 7.262.255l2.964 3.003c1.933 1.96 2.053 5.258.268 7.354zm-1.451-6.154L43.57 3.121c-1.326-1.344-3.56-1.422-4.982-.172l-5.11 4.487-5.163 8.716a.843.843 0 01-.453.368l-2.265.765 2 2.027h.001l2.959 2.998v.002l2 2.027.756-2.296a.845.845 0 01.361-.457l8.722-5.338 4.323-5.077c1.225-1.438 1.142-3.703-.184-5.047zm.873 38.327a.838.838 0 01-.608.521.828.828 0 01-.763-.23l-5.323-5.394-3.55 3.597 5.323 5.395a.855.855 0 01-.286 1.39 9.09 9.09 0 01-3.36.643 9.142 9.142 0 01-6.512-2.734 9.421 9.421 0 01-2.248-9.474l-6.992-7.086-8.281 8.392-2.945 5.338a.836.836 0 01-.356.344l-4.734 2.398a.825.825 0 01-.966-.158L2.85 44.396a.858.858 0 01-.157-.98l2.367-4.797a.84.84 0 01.34-.361l5.267-2.985 8.28-8.392-6.649-6.739a9.12 9.12 0 01-9.349-2.28C.36 15.24-.449 11.314.887 7.86a.83.83 0 011.37-.291l5.323 5.394 3.55-3.597-5.322-5.395a.856.856 0 01.286-1.389 9.117 9.117 0 019.872 2.09c2.456 2.489 3.31 6.154 2.248 9.474L35.997 32.17a9.119 9.119 0 019.35 2.278 9.423 9.423 0 012.061 10.004zM21.905 29.88l-1.775-1.798-8.363 8.475a.815.815 0 01-.183.14L6.44 39.611l-1.982 4.016 2.105 2.134 3.964-2.007 2.876-5.214a.857.857 0 01.138-.186zm22.258 5.767a7.464 7.464 0 00-8.078-1.71.83.83 0 01-.897-.188L16.656 14.966a.856.856 0 01-.187-.909 7.711 7.711 0 00-1.687-8.186 7.464 7.464 0 00-6.796-2.09l4.92 4.986a.855.855 0 010 1.198l-4.734 4.798a.831.831 0 01-1.183 0l-4.92-4.987a7.705 7.705 0 002.063 6.889 7.465 7.465 0 008.077 1.71.8.8 0 01.305-.06c.218 0 .432.087.592.248l18.532 18.782c.236.24.31.596.188.91a7.71 7.71 0 001.687 8.185 7.47 7.47 0 006.796 2.09l-4.92-4.985a.856.856 0 010-1.2l4.734-4.796a.828.828 0 011.183 0l4.92 4.985a7.705 7.705 0 00-2.063-6.888z" fill="#253241"/></svg>